<svg width="202" height="202" viewBox="0 0 202 202" fill="none" xmlns="http://www.w3.org/2000/svg">
<circle cx="101" cy="101" r="100.5" fill="white" stroke="#2E7D32"/>
<path d="M31.7759 121V104.648H37.5034C39.4875 104.648 40.9924 105.03 42.0181 105.794C43.0438 106.55 43.5566 107.662 43.5566 109.129C43.5566 109.931 43.3507 110.638 42.939 111.252C42.5272 111.858 41.9544 112.304 41.2207 112.588C42.0592 112.798 42.7181 113.221 43.1973 113.857C43.6839 114.494 43.9272 115.272 43.9272 116.193C43.9272 117.766 43.4256 118.956 42.4224 119.765C41.4191 120.573 39.9891 120.985 38.1323 121H31.7759ZM35.145 113.88V118.293H38.0312C38.8249 118.293 39.4425 118.106 39.8843 117.732C40.3335 117.35 40.5581 116.826 40.5581 116.16C40.5581 114.662 39.7832 113.902 38.2334 113.88H35.145ZM35.145 111.499H37.6382C39.3377 111.469 40.1875 110.792 40.1875 109.466C40.1875 108.725 39.9704 108.194 39.5361 107.872C39.1094 107.542 38.4318 107.377 37.5034 107.377H35.145V111.499ZM51.8447 121.225C50.0628 121.225 48.6104 120.678 47.4873 119.585C46.3717 118.492 45.814 117.036 45.814 115.216V114.902C45.814 113.681 46.0498 112.592 46.5215 111.634C46.9932 110.668 47.6595 109.927 48.5205 109.41C49.389 108.886 50.3773 108.624 51.4854 108.624C53.1475 108.624 54.4539 109.148 55.4048 110.196C56.3631 111.244 56.8423 112.731 56.8423 114.655V115.98H49.1045C49.2093 116.774 49.5238 117.41 50.0479 117.889C50.5794 118.368 51.2495 118.608 52.0581 118.608C53.3084 118.608 54.2855 118.155 54.9893 117.249L56.584 119.035C56.0973 119.723 55.4385 120.263 54.6074 120.652C53.7764 121.034 52.8555 121.225 51.8447 121.225ZM51.4741 111.252C50.8302 111.252 50.3062 111.469 49.9019 111.903C49.505 112.338 49.2505 112.959 49.1382 113.768H53.6528V113.509C53.6379 112.791 53.4432 112.236 53.0688 111.847C52.6945 111.45 52.1629 111.252 51.4741 111.252ZM59.5825 121V111.229H57.7744V108.849H59.5825V107.815C59.5825 106.453 59.9718 105.397 60.7505 104.648C61.5366 103.892 62.6335 103.514 64.041 103.514C64.4902 103.514 65.0405 103.589 65.6919 103.739L65.6582 106.254C65.3887 106.187 65.0592 106.153 64.6699 106.153C63.4495 106.153 62.8394 106.726 62.8394 107.872V108.849H65.2539V111.229H62.8394V121H59.5825ZM66.4331 114.812C66.4331 113.607 66.6652 112.532 67.1294 111.589C67.5936 110.646 68.2599 109.916 69.1284 109.399C70.0044 108.882 71.0189 108.624 72.1719 108.624C73.8115 108.624 75.1479 109.126 76.1812 110.129C77.2218 111.132 77.8021 112.495 77.9219 114.217L77.9443 115.048C77.9443 116.912 77.424 118.41 76.3833 119.54C75.3426 120.663 73.9463 121.225 72.1943 121.225C70.4424 121.225 69.0423 120.663 67.9941 119.54C66.9535 118.417 66.4331 116.89 66.4331 114.958V114.812ZM69.6787 115.048C69.6787 116.201 69.8958 117.084 70.3301 117.698C70.7643 118.305 71.3857 118.608 72.1943 118.608C72.9805 118.608 73.5944 118.308 74.0361 117.709C74.4779 117.103 74.6987 116.137 74.6987 114.812C74.6987 113.681 74.4779 112.806 74.0361 112.184C73.5944 111.563 72.973 111.252 72.1719 111.252C71.3783 111.252 70.7643 111.563 70.3301 112.184C69.8958 112.798 69.6787 113.753 69.6787 115.048ZM86.7715 111.892C86.3298 111.832 85.9404 111.802 85.6035 111.802C84.3757 111.802 83.5708 112.218 83.189 113.049V121H79.9434V108.849H83.0093L83.0991 110.297C83.7505 109.182 84.6527 108.624 85.8057 108.624C86.165 108.624 86.502 108.673 86.8164 108.77L86.7715 111.892ZM93.7119 121.225C91.93 121.225 90.4775 120.678 89.3545 119.585C88.2389 118.492 87.6812 117.036 87.6812 115.216V114.902C87.6812 113.681 87.917 112.592 88.3887 111.634C88.8604 110.668 89.5267 109.927 90.3877 109.41C91.2562 108.886 92.2445 108.624 93.3525 108.624C95.0146 108.624 96.3211 109.148 97.272 110.196C98.2303 111.244 98.7095 112.731 98.7095 114.655V115.98H90.9717C91.0765 116.774 91.391 117.41 91.915 117.889C92.4466 118.368 93.1167 118.608 93.9253 118.608C95.1756 118.608 96.1527 118.155 96.8564 117.249L98.4512 119.035C97.9645 119.723 97.3057 120.263 96.4746 120.652C95.6436 121.034 94.7227 121.225 93.7119 121.225ZM93.3413 111.252C92.6974 111.252 92.1733 111.469 91.769 111.903C91.3722 112.338 91.1177 112.959 91.0054 113.768H95.52V113.509C95.505 112.791 95.3104 112.236 94.936 111.847C94.5617 111.45 94.0301 111.252 93.3413 111.252ZM110.827 116.407L113.073 108.849H116.555L111.669 122.887L111.4 123.527C110.674 125.114 109.476 125.908 107.806 125.908C107.334 125.908 106.855 125.837 106.369 125.694V123.235L106.863 123.246C107.477 123.246 107.933 123.153 108.233 122.965C108.54 122.778 108.779 122.467 108.952 122.033L109.333 121.034L105.077 108.849H108.57L110.827 116.407ZM117.15 114.812C117.15 113.607 117.382 112.532 117.846 111.589C118.31 110.646 118.977 109.916 119.845 109.399C120.721 108.882 121.736 108.624 122.889 108.624C124.528 108.624 125.865 109.126 126.898 110.129C127.939 111.132 128.519 112.495 128.639 114.217L128.661 115.048C128.661 116.912 128.141 118.41 127.1 119.54C126.059 120.663 124.663 121.225 122.911 121.225C121.159 121.225 119.759 120.663 118.711 119.54C117.67 118.417 117.15 116.89 117.15 114.958V114.812ZM120.396 115.048C120.396 116.201 120.613 117.084 121.047 117.698C121.481 118.305 122.103 118.608 122.911 118.608C123.697 118.608 124.311 118.308 124.753 117.709C125.195 117.103 125.416 116.137 125.416 114.812C125.416 113.681 125.195 112.806 124.753 112.184C124.311 111.563 123.69 111.252 122.889 111.252C122.095 111.252 121.481 111.563 121.047 112.184C120.613 112.798 120.396 113.753 120.396 115.048ZM137.938 119.765C137.136 120.738 136.028 121.225 134.613 121.225C133.311 121.225 132.315 120.85 131.626 120.102C130.945 119.353 130.597 118.256 130.582 116.811V108.849H133.827V116.699C133.827 117.964 134.404 118.597 135.557 118.597C136.657 118.597 137.413 118.215 137.825 117.451V108.849H141.082V121H138.027L137.938 119.765ZM150.358 111.892C149.917 111.832 149.527 111.802 149.19 111.802C147.963 111.802 147.158 112.218 146.776 113.049V121H143.53V108.849H146.596L146.686 110.297C147.337 109.182 148.24 108.624 149.393 108.624C149.752 108.624 150.089 108.673 150.403 108.77L150.358 111.892ZM68.376 151V141.229H66.5679V138.849H68.376V137.815C68.376 136.453 68.7653 135.397 69.5439 134.648C70.3301 133.892 71.4269 133.514 72.8345 133.514C73.2837 133.514 73.834 133.589 74.4854 133.739L74.4517 136.254C74.1821 136.187 73.8527 136.153 73.4634 136.153C72.243 136.153 71.6328 136.726 71.6328 137.872V138.849H74.0474V141.229H71.6328V151H68.376ZM79.1572 151H75.9004V133.75H79.1572V151ZM85.2666 151H82.0098V138.849H85.2666V151ZM81.8188 135.704C81.8188 135.217 81.9798 134.817 82.3018 134.502C82.6312 134.188 83.0767 134.031 83.6382 134.031C84.1922 134.031 84.634 134.188 84.9634 134.502C85.2928 134.817 85.4575 135.217 85.4575 135.704C85.4575 136.198 85.2891 136.603 84.9521 136.917C84.6227 137.231 84.1847 137.389 83.6382 137.389C83.0916 137.389 82.6499 137.231 82.313 136.917C81.9836 136.603 81.8188 136.198 81.8188 135.704ZM87.479 144.834C87.479 142.97 87.9207 141.469 88.8042 140.331C89.6951 139.193 90.8931 138.624 92.3979 138.624C93.7306 138.624 94.7676 139.081 95.5088 139.994L95.6436 138.849H98.5859V150.596C98.5859 151.659 98.3426 152.583 97.856 153.37C97.3768 154.156 96.6992 154.755 95.8232 155.167C94.9473 155.578 93.9215 155.784 92.7461 155.784C91.8551 155.784 90.9867 155.604 90.1406 155.245C89.2946 154.893 88.6545 154.437 88.2202 153.875L89.6577 151.898C90.4663 152.804 91.4471 153.257 92.6001 153.257C93.4611 153.257 94.1312 153.025 94.6104 152.561C95.0895 152.104 95.3291 151.453 95.3291 150.607V149.956C94.5804 150.802 93.5959 151.225 92.3755 151.225C90.9155 151.225 89.7326 150.656 88.8267 149.518C87.9282 148.372 87.479 146.856 87.479 144.969V144.834ZM90.7246 145.07C90.7246 146.171 90.9455 147.036 91.3872 147.665C91.8289 148.286 92.4354 148.597 93.2065 148.597C94.1948 148.597 94.9023 148.226 95.3291 147.485V142.375C94.8949 141.634 94.1948 141.263 93.229 141.263C92.4504 141.263 91.8364 141.581 91.3872 142.218C90.9455 142.854 90.7246 143.805 90.7246 145.07ZM104.257 140.174C105.118 139.141 106.2 138.624 107.503 138.624C110.138 138.624 111.475 140.155 111.512 143.217V151H108.267V143.307C108.267 142.611 108.117 142.098 107.817 141.769C107.518 141.432 107.02 141.263 106.324 141.263C105.373 141.263 104.684 141.63 104.257 142.364V151H101.012V133.75H104.257V140.174ZM117.846 135.861V138.849H119.924V141.229H117.846V147.294C117.846 147.743 117.932 148.065 118.104 148.26C118.277 148.454 118.606 148.552 119.093 148.552C119.452 148.552 119.77 148.526 120.047 148.473V150.933C119.411 151.127 118.756 151.225 118.082 151.225C115.806 151.225 114.646 150.075 114.601 147.777V141.229H112.826V138.849H114.601V135.861H117.846Z" fill="#2E7D32"/>
<path fill-rule="evenodd" clip-rule="evenodd" d="M129.187 47.3412C131.92 46.5895 134.756 48.2295 135.474 50.9629C136.191 53.6962 134.585 56.4979 131.818 57.2837L75.2037 72.4195L66.3545 57.0787L71.3087 55.7462L78.0395 61.0079L95.0203 56.4637L80.8753 31.9662L87.4695 30.2237L111.045 52.1929L129.187 47.3412ZM133.527 82.9428H68.6099V89.7762H133.527V82.9428Z" fill="#2E7D32"/>
</svg>
